<svg viewBox="0 0 100 100" version="1.1" xmlns="http://www.w3.org/2000/svg" xmlns:xlink="http://www.w3.org/1999/xlink" xml:space="preserve" xmlns:serif="http://www.serif.com/" style="fill-rule:evenodd;clip-rule:evenodd;stroke-linejoin:round;stroke-miterlimit:2;" fill="currentColor">
  <path d="M49.005,4.159c0.126,-0.414 0.508,-0.697 0.941,-0.697c0.433,0 0.815,0.283 0.941,0.697l10.602,34.829l36.4,-0.679c0.433,-0.009 0.82,0.267 0.953,0.679c0.134,0.412 -0.017,0.862 -0.372,1.11l-29.847,20.846l11.894,34.409c0.141,0.409 -0.001,0.862 -0.351,1.117c-0.351,0.254 -0.826,0.25 -1.171,-0.011l-29.049,-21.945l-29.049,21.945c-0.346,0.261 -0.821,0.265 -1.171,0.011c-0.35,-0.255 -0.493,-0.708 -0.352,-1.117l11.895,-34.409l-29.848,-20.846c-0.355,-0.248 -0.506,-0.698 -0.372,-1.11c0.134,-0.412 0.521,-0.688 0.954,-0.679l36.4,0.679l10.602,-34.829Z"/>
</svg>
